<?xml version="1.0" standalone="no"?>
<!DOCTYPE svg PUBLIC "-//W3C//DTD SVG 20010904//EN"
 "http://www.w3.org/TR/2001/REC-SVG-20010904/DTD/svg10.dtd">
<svg version="1.0" xmlns="http://www.w3.org/2000/svg"
 width="300.000000pt" height="283.000000pt" viewBox="0 0 300.000000 283.000000"
 preserveAspectRatio="xMidYMid meet">
<metadata>
Created by potrace 1.10, written by Peter Selinger 2001-2011
</metadata>
<g transform="translate(0.000000,283.000000) scale(0.100000,-0.100000)"
fill="#000000" stroke="none">
<path d="M1380 2334 c-8 -1 -48 -8 -89 -14 -304 -50 -580 -265 -711 -553 -96
-213 -106 -499 -24 -730 70 -195 229 -389 401 -489 165 -96 280 -129 468 -136
199 -6 311 17 487 103 248 121 447 384 503 664 24 116 16 344 -14 449 -102
349 -372 604 -729 688 -56 13 -252 25 -292 18z m239 -41 c59 -7 184 -45 246
-74 48 -23 158 -91 181 -113 6 -6 28 -24 49 -41 40 -31 136 -145 167 -198 104
-180 144 -340 135 -541 -18 -404 -276 -731 -672 -852 -83 -26 -103 -28 -260
-28 -157 0 -177 2 -260 28 -176 54 -306 134 -425 263 -159 172 -233 346 -246
580 -24 393 188 742 548 907 160 73 331 96 537 69z"/>
<path d="M1094 1845 c-181 -24 -245 -44 -286 -85 -32 -32 -38 -44 -38 -80 0
-36 6 -48 39 -81 46 -46 62 -48 187 -19 116 27 309 40 452 29 209 -16 372 -57
538 -135 39 -19 83 -34 98 -34 46 0 86 28 107 75 18 40 18 48 5 78 -20 49 -50
74 -143 118 -255 121 -649 176 -959 134z m392 -25 c226 -22 417 -71 582 -151
69 -34 86 -46 98 -75 12 -29 12 -39 0 -68 -28 -68 -73 -72 -183 -17 -271 135
-705 178 -1012 100 -97 -25 -113 -24 -145 7 -53 54 -26 131 55 154 72 21 187
41 264 47 44 3 82 7 84 9 8 8 149 4 257 -6z"/>
<path d="M1200 1519 c-110 -7 -242 -31 -297 -54 -35 -15 -73 -67 -73 -100 0
-33 35 -81 69 -95 28 -11 43 -10 101 4 121 29 230 39 360 33 189 -9 332 -45
504 -127 46 -22 91 -40 100 -40 51 0 106 59 106 113 0 74 -160 164 -406 227
-96 25 -157 33 -329 43 -16 1 -77 -1 -135 -4z m352 -48 c136 -24 268 -66 376
-120 84 -42 112 -69 112 -109 0 -28 -42 -72 -69 -72 -12 0 -60 20 -108 44
-255 128 -575 163 -855 94 -82 -20 -89 -20 -112 -4 -33 21 -43 62 -25 95 43
77 420 116 681 72z"/>
<path d="M1140 1200 c-198 -24 -264 -55 -264 -124 0 -38 15 -61 54 -81 24 -12
41 -11 136 6 120 22 291 29 399 16 87 -11 210 -49 297 -93 37 -19 83 -34 101
-34 73 0 108 91 57 146 -34 35 -166 97 -274 129 -146 42 -337 55 -506 35z
m309 -30 c121 -13 246 -48 357 -100 115 -53 142 -105 78 -146 -22 -15 -28 -14
-126 34 -158 78 -247 96 -453 95 -131 -1 -190 -6 -260 -21 -86 -20 -91 -20
-115 -3 -32 23 -37 61 -12 84 22 20 123 43 244 56 119 12 173 12 287 1z"/>
</g>
</svg>
