<?xml version="1.0" standalone="no"?>
<!DOCTYPE svg PUBLIC "-//W3C//DTD SVG 20010904//EN"
 "http://www.w3.org/TR/2001/REC-SVG-20010904/DTD/svg10.dtd">
<svg version="1.0" xmlns="http://www.w3.org/2000/svg"
 width="293.000000pt" height="190.000000pt" viewBox="0 0 293.000000 190.000000"
 preserveAspectRatio="xMidYMid meet">
<metadata>
Created by potrace 1.10, written by Peter Selinger 2001-2011
</metadata>
<g transform="translate(0.000000,190.000000) scale(0.100000,-0.100000)"
fill="#000000" stroke="none">
<path d="M2175 1874 c-57 -29 -61 -38 -43 -89 17 -44 17 -46 -2 -65 -25 -25
-25 -45 1 -71 18 -18 23 -19 42 -6 27 17 32 55 17 115 -9 39 -9 46 7 57 22 16
29 12 38 -22 4 -19 2 -29 -9 -35 -17 -9 -20 -35 -10 -62 9 -22 50 -20 74 4 27
27 25 66 -5 134 -21 49 -28 56 -52 56 -16 0 -41 -7 -58 -16z m94 -55 c26 -64
27 -95 2 -109 -29 -15 -41 -12 -41 10 0 11 7 20 15 20 18 0 19 31 3 77 -14 38
-19 39 -59 16 -33 -20 -34 -22 -14 -87 8 -28 13 -58 9 -68 -6 -20 -40 -24 -47
-5 -6 17 12 49 24 42 13 -9 11 16 -6 65 -17 49 -14 57 29 76 52 22 62 18 85
-37z"/>
<path d="M1588 1864 c-57 -17 -101 -59 -123 -118 -17 -45 -17 -45 -38 -25 -24
22 -43 23 -76 5 -23 -13 -25 -12 -48 35 -14 28 -42 62 -66 80 -40 29 -46 30
-117 26 -164 -9 -300 -131 -300 -269 l0 -48 -37 20 c-72 38 -153 22 -230 -45
-69 -61 -93 -112 -93 -203 0 -39 4 -82 9 -95 8 -21 6 -26 -15 -36 -15 -6 -24
-19 -24 -33 0 -19 -8 -14 -58 35 -32 31 -61 57 -65 57 -4 0 -7 -14 -7 -30 l0
-30 -62 45 c-59 43 -78 52 -78 39 0 -3 12 -45 27 -93 23 -73 33 -92 70 -124
49 -44 53 -57 19 -57 -24 0 -227 -38 -232 -43 -2 -2 8 -32 21 -68 13 -36 29
-94 36 -129 8 -46 21 -75 42 -99 16 -19 45 -59 64 -88 18 -29 38 -53 42 -53 5
0 19 16 30 36 31 52 49 33 50 -53 0 -94 23 -164 66 -202 50 -44 92 -63 131
-59 22 1 38 -3 46 -14 42 -54 134 -73 205 -43 33 14 38 14 46 0 24 -43 77 -91
125 -112 99 -44 178 -25 240 58 35 47 36 48 63 33 56 -28 128 -9 190 52 31 31
40 34 57 25 32 -17 90 -13 111 8 16 16 21 17 42 5 58 -32 172 -5 220 53 l24
29 55 -29 c47 -25 63 -28 108 -24 29 3 59 11 67 17 13 11 37 -9 117 -104 14
-17 31 -27 39 -24 8 3 23 30 33 59 10 30 33 86 51 125 21 47 34 94 38 140 4
38 8 78 9 89 3 18 -2 20 -44 17 -54 -4 -63 8 -18 25 38 14 55 55 40 96 -13 38
-13 47 2 47 6 0 19 7 29 16 15 14 17 28 13 103 -9 146 -46 219 -121 237 -25 7
-26 8 -19 78 3 39 9 140 13 224 7 163 4 172 -43 137 -25 -19 -44 -19 -83 1
-25 13 -37 13 -66 4 -55 -18 -95 -57 -95 -91 0 -16 -4 -29 -10 -29 -5 0 -10 5
-10 10 0 20 -49 60 -72 60 -22 0 -23 3 -23 83 0 66 -4 90 -23 127 -66 127
-167 173 -294 134z m159 -35 c97 -36 173 -212 129 -297 -9 -17 -16 -33 -16
-36 0 -3 21 -6 47 -8 41 -3 50 -7 68 -35 27 -44 52 -43 61 2 12 63 71 105 129
91 39 -10 30 -28 -10 -20 -50 9 -82 -15 -96 -71 -19 -77 -55 -84 -97 -19 -23
35 -26 36 -68 31 -61 -6 -71 9 -43 64 26 52 21 105 -15 178 -55 108 -152 139
-263 84 -50 -25 -75 -62 -81 -122 -6 -61 -24 -71 -54 -28 -38 55 -45 57 -86
22 -17 -14 -35 -25 -41 -25 -6 0 -20 22 -32 50 -12 27 -39 66 -60 85 -35 31
-45 35 -96 35 -74 0 -130 -27 -188 -92 -51 -57 -65 -96 -65 -190 0 -38 -3 -68
-6 -68 -3 0 -26 16 -51 35 -25 19 -60 37 -79 41 -42 8 -85 -2 -79 -19 2 -6 6
-25 10 -40 5 -26 4 -28 -16 -22 -18 6 -20 4 -15 -13 5 -13 1 -22 -10 -26 -21
-8 -21 -8 -29 29 -5 21 -4 27 3 20 5 -5 12 -19 15 -30 3 -11 5 -3 6 19 1 33 3
37 16 26 13 -11 15 -8 15 14 0 14 -4 26 -9 26 -5 0 -32 -21 -59 -48 -36 -35
-51 -59 -61 -96 -12 -51 -6 -152 10 -162 18 -11 9 -43 -13 -46 -24 -3 -57 -56
-58 -92 0 -28 -42 -86 -61 -86 -10 0 -19 -11 -22 -30 -4 -16 -11 -30 -18 -30
-7 0 -8 11 -4 33 10 42 13 47 33 47 10 0 22 8 28 18 10 15 5 25 -28 60 -21 23
-41 42 -43 42 -3 0 -5 -12 -5 -26 0 -35 -9 -29 -65 41 -26 33 -55 69 -64 79
-19 23 -10 19 56 -26 23 -15 44 -28 47 -28 3 0 6 12 6 27 0 26 3 25 60 -32 33
-32 61 -57 62 -54 2 2 10 17 18 34 9 16 25 34 37 40 18 9 19 14 10 30 -6 11
-12 56 -12 100 0 74 3 83 33 127 79 115 220 152 287 78 10 -11 21 -20 25 -20
4 0 9 30 12 68 6 83 32 136 93 190 64 56 102 72 177 72 83 0 125 -27 165 -108
l30 -59 27 24 c37 32 59 29 95 -12 l31 -36 0 31 c0 36 29 97 58 123 46 41 157
60 219 36z m10 -66 c69 -60 93 -138 67 -220 -16 -51 -16 -58 -2 -84 15 -26 15
-27 -5 -33 -42 -11 -62 38 -32 78 18 24 19 46 3 46 -6 0 -70 19 -141 42 l-129
41 5 38 c10 78 61 116 157 118 36 1 52 -5 77 -26z m-548 -18 c17 -20 37 -50
45 -68 7 -18 23 -40 34 -50 20 -19 22 -18 61 4 l40 22 32 -31 c18 -18 43 -32
55 -32 20 0 22 -6 28 -92 13 -182 18 -197 58 -162 20 19 42 8 51 -27 5 -18 2
-20 -16 -14 -63 20 -128 12 -248 -30 -38 -14 -40 -13 -48 8 -9 22 -41 165 -61
270 -8 41 -16 57 -28 57 -21 0 -129 -55 -166 -85 l-29 -23 12 -74 c13 -79 66
-302 76 -318 3 -6 4 -10 1 -10 -3 0 -22 34 -42 76 -19 41 -41 77 -48 80 -7 3
-34 -5 -61 -16 -27 -11 -51 -17 -55 -13 -4 4 -20 47 -35 96 -16 51 -33 87 -40
87 -38 0 -175 -170 -175 -216 0 -21 47 -138 100 -247 31 -64 28 -73 -25 -69
l-46 4 25 -56 c14 -31 20 -56 14 -56 -12 0 -308 147 -321 159 -5 5 14 34 42
65 33 39 52 70 56 95 4 25 18 49 41 71 23 21 33 38 29 49 -15 39 -26 114 -21
137 5 19 11 24 26 19 14 -5 32 4 62 29 47 41 46 40 101 24 37 -11 41 -11 62
15 16 18 32 25 52 24 23 -2 31 4 43 30 10 22 22 33 37 33 14 0 32 14 50 38 15
20 47 59 71 85 45 50 47 59 27 125 -7 21 -5 22 48 22 50 0 57 -3 86 -35z
m-179 6 c0 -5 -5 -11 -11 -13 -16 -5 -1 -48 17 -48 8 0 14 7 14 15 0 9 -6 12
-17 8 -11 -4 -14 -3 -9 5 10 17 36 15 42 -3 8 -20 -15 -47 -34 -40 -9 3 -12 0
-9 -9 8 -19 -16 -38 -37 -30 -33 13 -51 84 -22 84 19 0 30 -17 15 -22 -17 -6
-1 -48 18 -48 8 0 13 6 10 13 -2 6 -10 11 -17 9 -11 -2 -11 0 -2 11 7 8 10 22
6 31 -3 9 -4 23 0 31 6 16 36 21 36 6z m-68 -112 c11 -15 16 -32 12 -42 -8
-21 -34 -22 -34 -1 0 8 5 12 10 9 14 -9 12 7 -4 28 -14 19 -36 23 -36 7 0 -5
8 -10 17 -10 12 0 14 -3 6 -11 -15 -15 -33 -3 -33 21 0 36 35 36 62 -1z m738
-85 c41 -10 77 -20 79 -21 3 -2 -8 -16 -22 -31 -15 -16 -27 -31 -27 -36 0 -4
13 -24 29 -44 48 -61 71 -140 71 -241 0 -84 -2 -93 -40 -167 -22 -44 -48 -89
-58 -102 l-18 -23 -41 60 -41 59 19 29 c35 52 21 186 -31 307 l-21 49 -27 -26
c-33 -31 -43 -34 -40 -9 3 23 -12 222 -18 244 -4 15 2 14 53 -6 32 -13 92 -32
133 -42z m-751 8 c3 -1 -3 -10 -12 -19 -16 -16 -17 -16 -17 0 0 10 -7 20 -15
23 -8 4 -15 15 -15 27 0 20 1 20 28 -4 15 -13 29 -25 31 -27z m271 -6 c0 -29
31 -181 66 -325 24 -96 77 -471 69 -480 -2 -2 -28 23 -58 55 -55 59 -55 59
-76 40 -28 -26 -27 -33 18 -86 l39 -46 -20 -24 c-11 -14 -29 -36 -39 -49 -19
-23 -20 -23 -39 -6 -11 10 -34 39 -50 66 -30 45 -31 49 -16 77 14 28 14 31 -6
48 -36 33 -98 132 -149 237 -27 56 -49 107 -49 113 0 14 91 57 101 47 4 -4 26
-48 48 -98 22 -49 44 -91 49 -93 4 -1 16 6 25 16 16 17 15 22 -8 81 -26 63
-68 226 -80 312 l-7 46 49 30 c108 68 133 76 133 39z m1066 -118 c-18 -313
-18 -446 -2 -628 22 -244 18 -230 66 -230 l39 0 -39 -82 c-21 -46 -47 -111
-57 -145 -10 -35 -21 -62 -24 -60 -3 1 -47 49 -98 107 l-92 105 31 27 c16 15
30 34 30 42 0 22 -88 308 -98 318 -5 5 -19 -18 -34 -54 l-26 -63 -68 -5 c-38
-3 -75 -9 -83 -14 -23 -15 -31 15 -31 125 0 89 3 112 22 150 31 61 37 206 13
281 -10 29 -21 57 -26 63 -5 5 -9 15 -9 22 0 11 16 13 68 11 59 -3 67 -5 69
-23 1 -11 7 -95 14 -187 8 -113 16 -168 24 -168 6 0 20 19 31 41 l20 42 22
-37 c37 -63 52 -44 52 68 0 40 3 128 7 194 l6 122 81 45 c45 24 85 44 90 45 5
0 6 -48 2 -112z m-1566 65 c0 -15 -2 -16 -10 -3 -8 12 -10 12 -16 -3 -4 -10
-2 -23 5 -30 8 -8 11 -8 11 1 0 6 7 9 15 6 11 -5 15 1 15 19 0 20 4 24 25 19
14 -2 25 -9 25 -14 0 -6 -9 -8 -20 -5 -22 6 -28 -8 -7 -16 9 -4 9 -8 -1 -15
-11 -7 -8 -11 10 -17 l23 -8 -24 -4 c-14 -3 -29 1 -35 9 -6 7 -21 12 -33 10
-14 -2 -23 3 -25 15 -7 30 3 53 23 53 11 0 19 -7 19 -17z m-132 -70 c0 -5 2
-16 7 -27 8 -19 -11 -40 -28 -29 -5 3 -3 9 4 14 10 6 11 9 2 9 -7 0 -13 9 -13
20 0 11 7 20 15 20 8 0 14 -3 13 -7z m1497 -160 c-3 -76 -9 -149 -11 -163 l-6
-25 -20 25 -20 25 -19 -24 c-11 -13 -22 -21 -25 -18 -8 7 -29 276 -22 282 3 3
17 1 31 -4 21 -8 32 -6 59 14 18 13 34 24 36 24 2 1 0 -61 -3 -136z m-1217
-26 c50 -155 123 -307 188 -390 l46 -59 -21 -51 c-29 -75 -31 -85 -33 -162
l-2 -69 -86 92 c-47 51 -89 92 -93 92 -15 0 -5 -37 23 -89 26 -47 28 -56 15
-64 -8 -4 -28 -33 -43 -63 l-27 -54 -250 146 c-138 80 -265 155 -283 166 l-33
20 -17 -41 c-9 -22 -19 -41 -22 -41 -3 0 -13 20 -24 45 -10 25 -42 84 -72 132
-30 47 -53 87 -52 88 4 3 242 45 256 45 10 0 10 -5 2 -21 -6 -11 -10 -26 -8
-34 3 -13 439 -237 447 -230 2 2 -15 38 -37 79 -23 42 -40 76 -39 76 1 0 27
-7 57 -15 30 -8 58 -15 61 -15 3 0 -16 44 -42 98 -27 53 -64 133 -82 178 l-35
80 34 49 c40 59 112 145 122 145 4 -1 26 -60 50 -133z m723 27 c40 -20 59 -68
59 -147 0 -50 -5 -70 -21 -91 l-20 -26 89 -127 c99 -141 99 -141 12 -142 l-46
-1 -74 115 c-69 105 -98 133 -113 108 -4 -8 13 -148 28 -223 l6 -36 -63 -11
c-35 -6 -64 -10 -64 -9 -1 0 -5 30 -8 66 -14 139 -47 417 -52 446 -7 38 -5 39
99 69 99 28 129 30 168 9z m-1358 -149 l6 -30 -13 30 c-7 17 -16 44 -19 60
l-6 30 13 -30 c7 -16 16 -43 19 -60z m2103 -34 c38 -23 74 -94 74 -147 0 -39
-31 -104 -50 -104 -5 0 -10 -18 -10 -39 0 -25 -7 -47 -21 -62 l-21 -24 8 25
c4 14 8 45 8 70 1 34 6 46 19 48 22 4 47 52 47 88 0 45 -40 116 -72 128 -15 6
-28 16 -28 23 0 18 9 16 46 -6z m-4 -72 c10 -13 21 -41 24 -61 5 -31 2 -41
-22 -65 l-28 -28 -8 40 c-4 22 -7 64 -7 93 -1 59 9 64 41 21z m-777 -146 c28
-42 51 -80 53 -84 3 -8 -77 -53 -83 -47 -2 2 -8 41 -15 88 -6 47 -13 93 -16
103 -11 37 13 13 61 -60z m225 2 c0 -55 0 -55 -20 -35 -25 25 -25 48 -2 71 9
10 18 18 20 18 1 1 2 -24 2 -54z m284 -108 c10 -34 26 -90 37 -125 l18 -63
-30 -34 c-23 -25 -29 -40 -24 -56 7 -20 5 -21 -21 -15 -32 8 -71 40 -79 66 -3
9 2 38 10 66 8 27 15 59 15 71 0 26 -31 38 -60 23 -14 -8 -26 -8 -41 0 -35 19
-191 -1 -251 -31 -10 -5 -31 -9 -48 -9 -17 0 -45 -6 -63 -14 -18 -7 -55 -14
-81 -14 -49 -1 -86 -22 -86 -48 0 -9 -10 -11 -35 -7 -21 3 -41 1 -50 -7 -9 -7
-38 -23 -65 -36 -28 -13 -50 -27 -50 -32 0 -12 -78 -42 -107 -42 -37 0 -72
-22 -94 -57 -19 -30 -20 -38 -9 -66 7 -18 27 -44 44 -59 35 -30 31 -42 -9 -32
-39 10 -99 75 -119 129 l-18 45 28 48 c15 26 33 55 42 64 10 12 13 28 8 48
l-6 31 52 -48 c29 -26 63 -59 76 -73 16 -16 22 -19 15 -6 -6 11 -7 35 -2 60 5
22 8 55 9 73 0 17 5 44 10 59 l11 27 48 -52 c26 -28 52 -51 57 -51 9 0 45 35
88 87 18 22 18 23 -13 65 -52 70 -38 79 29 18 24 -22 48 -40 52 -40 4 0 8 -9
8 -19 0 -11 7 -26 15 -34 14 -15 26 -14 133 9 12 2 22 11 22 19 0 8 21 23 47
35 l47 21 17 -22 c15 -21 22 -22 99 -15 45 4 91 11 101 16 10 6 39 10 66 10
71 0 88 8 106 46 9 19 20 34 24 34 5 0 16 -28 27 -63z m-1917 -59 c-2 -18 -4
-4 -4 32 0 36 2 50 4 33 2 -18 2 -48 0 -65z m32 -11 c-1 -45 -2 -48 -9 -22
-11 45 -11 87 0 80 6 -3 9 -30 9 -58z m2194 16 c7 -36 -4 -64 -14 -37 -11 27
-11 64 0 64 5 0 11 -12 14 -27z m-2063 -40 c7 -32 15 -64 18 -72 3 -9 1 -12
-6 -7 -10 6 -18 29 -38 109 -4 16 -2 27 4 27 6 0 16 -26 22 -57z m-39 -96
l-19 -31 -7 46 c-5 30 -2 59 6 83 l14 37 13 -52 c12 -47 11 -54 -7 -83z m74
78 c4 -26 3 -36 -3 -30 -5 6 -13 28 -17 50 -4 26 -3 36 3 30 5 -5 13 -28 17
-50z m-126 -17 c6 -28 10 -53 8 -55 -8 -7 -37 65 -37 92 0 41 17 20 29 -37z
m2121 32 c0 -16 -4 -30 -10 -30 -5 0 -10 14 -10 30 0 17 5 30 10 30 6 0 10
-13 10 -30z m-376 3 c-4 -10 -14 -39 -23 -65 -9 -26 -19 -48 -23 -48 -4 0 -12
16 -19 34 -14 38 -29 39 -29 2 0 -24 -29 -71 -30 -48 0 9 -5 10 -17 3 -27 -14
-53 5 -53 39 0 55 69 67 71 13 l1 -28 8 25 c4 14 11 37 14 53 9 37 19 34 35
-9 l13 -36 19 41 c10 22 23 41 30 41 7 0 8 -6 3 -17z m-104 -2 c0 -4 -24 -12
-52 -17 l-53 -9 -3 -62 c-4 -79 -22 -83 -22 -5 l0 59 -30 -5 c-16 -2 -30 -6
-30 -8 0 -2 9 -27 20 -55 12 -28 18 -54 15 -57 -9 -9 -22 10 -35 53 -12 37
-14 38 -23 17 -12 -27 -22 -28 -37 -4 -9 13 -10 4 -7 -41 2 -38 0 -56 -7 -54
-6 2 -10 12 -10 21 1 9 -5 16 -12 16 -11 0 -12 -4 -4 -19 12 -24 13 -41 1 -41
-5 0 -12 11 -15 25 -9 37 -43 33 -51 -5 -4 -16 -11 -30 -17 -30 -6 0 -8 10 -4
25 4 17 2 25 -6 25 -8 1 -5 7 7 16 14 10 20 26 20 54 0 29 4 40 17 43 22 6 30
-4 18 -23 -11 -18 6 -50 25 -50 20 0 20 54 -1 71 -14 11 -14 13 0 21 12 7 23
1 41 -19 l24 -28 7 33 c4 18 12 31 18 29 6 -3 43 4 81 14 77 20 125 24 125 10z
m-1455 -21 c-2 -4 -9 -38 -14 -75 -16 -113 24 -169 124 -171 41 0 56 -6 85
-32 19 -18 46 -33 60 -34 65 -3 85 3 118 40 32 36 34 36 48 18 8 -11 14 -27
14 -35 0 -27 73 -115 110 -133 45 -23 97 -23 152 1 51 21 61 33 78 84 9 30 16
37 29 32 66 -28 144 -30 189 -6 11 6 28 31 38 56 21 49 26 52 64 30 45 -26 78
-19 101 20 12 19 22 35 24 35 2 0 17 -14 33 -30 29 -29 49 -35 102 -30 49 4
99 44 148 116 10 15 14 16 19 5 3 -8 23 -33 44 -55 33 -36 42 -41 89 -42 61
-2 73 -10 37 -23 -48 -18 -126 15 -159 67 l-20 33 -18 -28 c-40 -66 -128 -112
-190 -98 -16 4 -41 16 -56 28 -19 15 -29 18 -32 9 -10 -31 -36 -44 -76 -39
-23 2 -50 8 -61 11 -16 5 -23 -1 -37 -34 -22 -53 -68 -74 -153 -67 -33 2 -67
7 -76 11 -12 5 -18 -2 -27 -32 -13 -41 -53 -71 -124 -90 -98 -27 -213 51 -252
171 -5 15 -10 13 -35 -15 -27 -31 -34 -33 -90 -32 -50 1 -67 6 -98 29 -25 20
-50 29 -80 31 -55 2 -120 44 -139 89 -22 53 0 216 26 200 6 -4 8 -10 5 -15z
m223 -124 c84 -49 152 -93 152 -98 0 -5 -11 -20 -23 -34 -36 -38 -96 -36 -147
5 -29 23 -49 31 -79 31 -84 0 -115 34 -113 124 2 61 13 79 41 68 9 -4 85 -47
169 -96z m784 49 c-3 -18 0 -25 12 -25 11 0 16 9 16 31 0 20 4 29 13 26 6 -2
11 -14 9 -25 -2 -12 2 -22 9 -22 8 0 8 -4 -1 -15 -8 -9 -11 -30 -7 -55 4 -31
2 -40 -10 -40 -12 0 -14 9 -11 40 2 28 0 40 -9 40 -9 0 -13 -16 -13 -50 0 -27
-4 -50 -10 -50 -5 0 -10 18 -10 41 0 28 -4 39 -12 36 -9 -3 -12 -21 -10 -56 1
-30 -2 -51 -8 -51 -5 0 -10 7 -10 15 0 11 -7 13 -28 9 -35 -7 -52 11 -59 64
-4 27 -1 42 10 51 19 15 49 11 55 -8 3 -9 -2 -11 -17 -6 -25 8 -36 -13 -27
-50 8 -30 34 -44 47 -24 14 23 10 31 -11 24 -34 -11 -22 10 20 34 34 19 40 27
40 55 0 18 3 36 6 39 13 12 21 -3 16 -28z m-154 -114 c7 -30 10 -56 7 -59 -3
-3 -19 8 -36 24 -34 31 -33 34 -13 -37 4 -15 2 -20 -7 -17 -10 3 -30 63 -39
116 -2 12 26 -4 45 -25 26 -30 31 -21 15 22 -10 27 -4 54 9 38 4 -4 13 -32 19
-62z m573 49 c20 0 7 -21 -23 -40 -39 -24 -113 -24 -113 0 0 8 10 16 23 18 12
2 35 10 50 18 15 8 33 12 40 9 8 -3 18 -5 23 -5z m551 -32 c-3 -24 -16 -65
-28 -93 l-23 -50 0 36 c-1 32 41 149 53 149 2 0 2 -19 -2 -42z m-1234 -90 c13
-35 18 -60 12 -63 -6 -4 -13 2 -17 12 -3 10 -14 39 -24 64 -10 26 -15 50 -12
53 10 10 19 -4 41 -66z m779 -20 c-2 -18 -4 -4 -4 32 0 36 2 50 4 33 2 -18 2
-48 0 -65z m-1474 -15 c14 -7 18 -19 15 -47 l-3 -37 -42 35 c-27 24 -47 52
-57 83 -22 65 -21 66 27 18 23 -23 50 -46 60 -52z m612 47 c0 -21 4 -25 25
-25 20 0 26 -6 28 -27 3 -28 -40 -108 -58 -108 -13 0 -13 17 0 25 13 8 12 16
-5 39 -12 16 -18 17 -27 8 -7 -7 -16 -12 -20 -12 -13 0 -9 28 4 32 7 3 8 10 4
17 -6 9 -11 10 -19 2 -6 -6 -15 -11 -19 -11 -17 0 -7 29 22 60 35 37 65 37 65
0z m894 -27 c-1 -62 -6 -56 -11 15 -2 23 0 42 4 42 5 0 7 -26 7 -57z m113 10
c15 4 18 -1 18 -33 0 -32 -4 -39 -24 -44 -13 -3 -38 -3 -55 0 -30 6 -31 9 -31
55 l0 48 37 -15 c20 -9 44 -13 55 -11z m-421 -53 l-9 -55 -1 65 c-1 39 3 60 8
55 6 -6 6 -33 2 -65z m205 30 c-3 -57 -16 -62 -16 -7 0 26 4 47 9 47 5 0 8
-18 7 -40z m-26 -21 c0 -48 -2 -51 -35 -65 -19 -7 -37 -14 -40 -14 -3 0 -5 25
-5 55 0 50 2 55 23 55 12 0 29 5 37 10 8 5 16 10 18 10 1 0 2 -23 2 -51z m290
17 c0 -19 -4 -38 -10 -41 -6 -4 -10 10 -10 34 0 23 5 41 10 41 6 0 10 -15 10
-34z m-765 9 c0 -12 -50 -19 -71 -11 -9 3 -12 11 -9 16 8 14 80 9 80 -5z m335
-51 c0 -30 -4 -54 -10 -54 -6 0 -10 27 -10 61 0 37 4 58 10 54 6 -3 10 -31 10
-61z m-80 6 c0 -38 -4 -52 -19 -60 -42 -22 -51 -13 -51 44 0 52 1 55 28 59 15
2 30 5 35 6 4 0 7 -21 7 -49z m-93 -42 c-2 -18 -4 -6 -4 27 0 33 2 48 4 33 2
-15 2 -42 0 -60z m213 32 c0 -27 -4 -50 -10 -50 -5 0 -10 12 -10 28 0 15 -3
37 -6 50 -5 16 -2 22 10 22 13 0 16 -11 16 -50z m-1232 -10 c1 -25 -2 -39 -8
-35 -6 3 -10 24 -10 46 0 52 16 42 18 -11z m1702 9 c0 -18 -4 -28 -10 -24 -5
3 -10 20 -10 36 0 18 4 28 10 24 6 -3 10 -20 10 -36z m-1568 -56 c2 -24 0 -43
-4 -43 -5 0 -8 8 -8 19 0 10 -3 34 -6 52 -5 23 -3 31 4 24 5 -5 12 -29 14 -52z
m1613 30 c13 -16 25 -38 25 -50 0 -47 -37 -16 -50 42 -10 42 -6 43 25 8z
m-1531 -4 c2 -2 6 -23 10 -46 l6 -43 -35 0 c-38 0 -40 3 -49 63 l-5 37 35 -3
c18 -2 36 -6 38 -8z m39 -41 c3 -21 2 -38 -4 -38 -5 0 -9 10 -9 23 0 12 -3 33
-6 47 -5 17 -3 22 3 15 6 -5 13 -27 16 -47z m73 35 c7 -10 14 -26 14 -36 0
-15 -3 -16 -20 -7 -12 6 -20 21 -20 35 0 29 8 32 26 8z m576 -16 c8 -39 -8
-62 -48 -75 -21 -6 -39 -10 -41 -8 -2 1 -6 23 -9 49 l-7 46 44 4 c24 2 47 4
50 5 4 1 9 -9 11 -21z m-113 -54 c1 -50 -17 -39 -21 13 -2 25 -1 48 2 50 7 8
19 -28 19 -63z m-400 -26 c0 -33 -2 -38 -9 -22 -12 28 -12 78 0 70 6 -3 10
-25 9 -48z m281 -9 c0 -32 -3 -39 -10 -28 -13 20 -13 70 0 70 6 0 10 -19 10
-42z m-247 -20 c3 -21 2 -38 -3 -38 -11 0 -20 27 -20 63 0 41 16 23 23 -25z
m123 15 l62 5 5 -37 c3 -25 0 -40 -11 -48 -30 -24 -135 -10 -154 20 -4 7 -8
27 -8 45 0 30 1 32 22 21 13 -7 46 -10 84 -6z"/>
<path d="M1450 1193 c-8 -2 -20 -6 -26 -8 -8 -2 -8 -21 1 -67 9 -54 14 -63 34
-66 50 -8 111 42 111 91 0 38 -69 67 -120 50z m71 -23 c29 -16 24 -55 -10 -79
-39 -28 -48 -27 -57 12 -13 54 -13 57 4 67 22 12 39 12 63 0z"/>
<path d="M1797 613 c-13 -12 -7 -43 7 -43 16 0 25 19 18 38 -5 13 -15 16 -25
5z"/>
<path d="M1020 395 c-6 -8 -9 -19 -5 -25 11 -17 22 -11 27 15 6 28 -3 32 -22
10z"/>
<path d="M1068 353 c-23 -6 -23 -16 1 -37 17 -15 19 -15 25 -1 8 23 8 45 -1
44 -5 -1 -16 -3 -25 -6z"/>
<path d="M1966 1762 c-3 -5 6 -26 18 -47 l24 -39 -24 -19 c-29 -23 -31 -60 -4
-87 27 -27 56 -25 85 5 29 29 30 36 9 81 -16 33 -16 36 5 58 30 32 27 36 -25
36 -25 0 -54 5 -64 10 -10 6 -21 6 -24 2z m82 -51 c-9 -15 -9 -25 0 -46 25
-55 1 -106 -42 -89 -34 13 -30 74 5 74 23 0 24 12 4 50 l-16 30 31 0 c27 0 29
-2 18 -19z"/>
<path d="M2545 1661 c-76 -20 -122 -59 -155 -134 -17 -39 -21 -65 -19 -146 1
-59 -3 -106 -10 -120 -16 -29 -8 -38 42 -46 23 -4 66 -20 96 -36 73 -39 135
-39 216 0 98 46 145 116 145 215 0 104 -58 209 -140 251 -38 19 -130 28 -175
16z m165 -27 c34 -17 84 -71 105 -114 10 -19 20 -67 23 -106 4 -58 1 -77 -17
-112 -26 -52 -63 -86 -121 -113 -64 -30 -122 -27 -207 10 -39 17 -80 31 -91
31 -26 0 -34 10 -21 27 7 8 11 54 10 119 -2 97 0 112 24 161 31 62 79 99 146
112 51 10 113 4 149 -15z"/>
<path d="M2541 1625 c-99 -31 -132 -96 -134 -264 -2 -112 -1 -117 19 -119 11
-1 53 -15 93 -32 86 -37 119 -35 199 10 122 70 141 222 45 348 -48 64 -131 85
-222 57z m132 -34 c14 -14 -32 -69 -67 -79 -32 -8 -115 23 -116 44 0 12 46 37
85 47 27 7 86 0 98 -12z m67 -46 c0 -9 -7 -18 -15 -21 -8 -4 -15 -16 -15 -27
0 -16 3 -18 12 -9 7 7 22 12 35 12 42 0 58 -85 23 -120 -28 -28 -58 -26 -66 5
-8 33 4 45 21 22 11 -16 13 -16 19 -1 8 21 7 26 -4 44 -7 12 -12 12 -29 -4
-19 -17 -20 -17 -29 1 -19 36 -18 81 3 97 26 20 45 20 45 1z m-198 -62 c47
-42 -4 -198 -54 -167 -7 4 -3 13 10 23 11 9 24 29 28 44 6 28 6 28 -30 22 -41
-8 -66 6 -66 38 0 50 72 76 112 40z m109 -24 c13 -26 7 -103 -11 -124 -32 -39
-70 -5 -70 62 0 70 54 111 81 62z m56 -95 c9 -23 -11 -38 -26 -20 -13 16 -7
36 10 36 5 0 12 -7 16 -16z m-245 -31 c-1 -10 7 -28 18 -38 11 -10 20 -22 20
-27 0 -14 -28 -9 -44 8 -19 19 -22 88 -3 81 6 -2 11 -13 9 -24z m128 -28 c0
-8 -8 -15 -17 -16 -13 0 -11 -3 7 -10 23 -10 24 -11 8 -23 -10 -7 -18 -19 -18
-25 0 -7 -6 -11 -12 -9 -7 3 -14 23 -16 46 -3 35 0 41 20 45 13 2 24 5 26 6 1
0 2 -6 2 -14z m95 -15 c8 -36 -3 -60 -17 -36 -11 20 -28 21 -28 1 0 -8 -7 -15
-15 -15 -11 0 -15 11 -15 36 0 31 3 36 20 31 11 -3 20 -1 20 4 0 23 29 6 35
-21z m85 22 c0 -5 -8 -17 -19 -26 -17 -15 -19 -15 -25 -1 -10 28 -7 35 19 35
14 0 25 -4 25 -8z"/>
<path d="M2477 1469 c-26 -15 -21 -39 8 -39 18 0 25 5 25 19 0 25 -11 32 -33
20z"/>
<path d="M2594 1427 c-9 -37 -1 -61 19 -65 16 -3 18 2 15 39 -3 48 -24 63 -34
26z"/>
<path d="M288 1515 c-6 -6 29 -215 37 -223 3 -4 10 0 15 8 10 16 12 12 24 -43
13 -55 26 -14 26 80 0 95 0 96 -20 78 -19 -17 -20 -17 -40 29 -11 26 -20 52
-20 56 0 11 -16 21 -22 15z m70 -131 c8 5 12 -5 11 -31 -1 -21 -3 -30 -6 -20
-5 20 -19 22 -26 5 -3 -7 -6 -4 -6 7 -1 11 -4 31 -7 45 -6 24 -6 24 8 6 8 -10
20 -16 26 -12z"/>
</g>
</svg>
